<svg id="图层_1" data-name="图层 1" xmlns="http://www.w3.org/2000/svg" viewBox="0 0 400 400"><defs><style>.cls-1{fill:#151f45;fill-rule:evenodd;}</style></defs><title>东山派1号LOGO定稿</title><path class="cls-1" d="M339.43,62.45A195.41,195.41,0,0,0,61.92,337.64l-.08.2.55.27.67.67A195.41,195.41,0,1,0,339.43,62.45ZM208.26,19.36a181,181,0,0,1,121.26,53c2.44,2.48,4.83,5,7.15,7.59H208.26Zm0,166.87h44.23v-14H208.26v-35.9H269l5.19,0c11.24-.11,20.56-.23,30.47,6.14,20.17,12.89,15.49,40.5,15.49,40.57l-.08.44c-3.18,34.71-41.83,31.18-42,31.18l-.55,0H208.26ZM19.89,200.62A181.39,181.39,0,0,1,194.22,19.36V80H149.68c-4,0-6.06,0-8.22-.08-11-.23-23.75-.47-33.26,1.77C100.61,83.45,92.12,86.91,85,93.52s-12.58,16.31-13.88,30.35h.08a10.59,10.59,0,0,0-.36,1.53c-.15,1.34-.35,3.23-.43,5.51-.39,11.71,2,34.28,23.28,47.3,14.43,8.8,28.58,8.49,43.6,8.14,2.24,0,4.52-.12,8.49-.12h48.4v28.31H20.4C20.05,209.94,19.89,205.3,19.89,200.62Zm174.33-64.33v35.9h-48.4c-1.88,0-5.34.12-8.76.2-12.9.27-25.09.55-36-6.14C85.83,157,84.13,140.11,84.45,131.34l0-1.22.12,0,.47-5C86,115,89.76,108.22,94.59,103.7s11.13-7.08,16.79-8.42c8-1.84,19.74-1.65,29.84-1.45,3.7.08,7.32.16,8.46.16h44.54v28.27H152.67v14ZM22,228.57H194.22v19.07A157.63,157.63,0,0,0,68.88,324.59,180.64,180.64,0,0,1,22,228.57ZM294.92,356c-.59.4-1.18.75-1.81,1.1-.9.55-1.85,1.11-2.79,1.58a6.64,6.64,0,0,1-.95.55,181.66,181.66,0,0,1-176.3,0c-.27-.16-.59-.32-.86-.47-.91-.51-1.81-1.07-2.72-1.58l-2-1.18a180,180,0,0,1-28.31-21.15,143.82,143.82,0,0,1,248.49-4.09A179.72,179.72,0,0,1,294.92,356Zm42.74-35.78a158,158,0,0,0-129.4-72.85V228.57h69.12c4.6.32,52.1,2.52,56.58-43.6.36-2.36,5.27-37.08-21.74-54.38-13.41-8.61-24.65-8.49-38.14-8.33H208.26V94H348a181.41,181.41,0,0,1-10.34,226.19Z"/><path class="cls-1" d="M294.92,356a30,30,0,0,1-3.93-2c-11.52-5-17.07-9.2-21.43-12.94-2.28-1.92-6.84-6.13-8.26-8.14-8.81-12.58-9.75-9.86-12-6-1.14,2-8.1,9.59-9.87,11.16a58,58,0,0,1-15.29,9.6,58.91,58.91,0,0,1-31.81,3.93c-33.81-5.35-34.68-28.23-45.1-27.48-3.77,10.34-23.51,25.4-36.25,30.43-1.1.43-2.24.9-3.46,1.37-1.53.59-3.11,1.18-4.8,1.69l-6,1.66c-2.52,1-1.14.35-2.28,1.33,1.37.75-.32.4,1.69.47,2.71.08,10-2.67,13.4-4l1-.39c5.46-2.16,9.55-4.64,13.76-6.8l-8.81,6.45c-.47.31-1.33.82-1.65,1l-1.53,1.3-.59.51,1.45,0,65.7-1.54-8.8-4.24c-2.84-1.77-7.16-5.35-8.65-7.9,15.09,14.15,42.73,17.45,64.12,9.55,4.76-1.77,13.37-6.84,15.77-9.52-6.09,8.22-11.8,9.17-18.13,12.47-1.73.86-.9.39-1.8,1.1l68.09.12h1.5a7.13,7.13,0,0,0-.55-.55c-2.68-2.4-8.34-4.88-11-8.1,3.81,1.69,8.65,4.28,13.8,6.52a62.09,62.09,0,0,0,11.28,3.74,15.82,15.82,0,0,0,2,.24c1.93-.08.47.19,1.77-.44C306,358.79,299.4,357.61,294.92,356Zm-83-76.51c-1.53-2.32-2.83-4.36-4.48-7.35-8.34-15.34-9.87,2.32-22.14,16.12-7.55,8.49-22.1,19.66-32.16,22.84,1.18.95-1.46,5.47,11.6-2.75,3.77-2.36,5.86-3.81,9.16-5.86a.3.3,0,0,1-.16-.08c-.16-.15.12-.74.87-1.73a22.41,22.41,0,0,1,2.08-1.81c1-.74,2-1.49,3-2.16a24,24,0,0,1,4.05-2.2,24.51,24.51,0,0,1,4.95-1.61,24.85,24.85,0,0,1,5-.47h28.74A102.79,102.79,0,0,1,211.88,279.45Zm-24.14,18.76a20.53,20.53,0,0,0-4.41.82,34,34,0,0,0-5.11,1.93,29.38,29.38,0,0,1-3.14,1.37c-1.46,3.23-1.54,2.72-8,7.24-3.18,2.24-7.47,4.24-10.26,6.72,3.07,5.58,12.07,11.29,18.09,14.31,1.3.63,2.71,1.26,4.21,1.85a7.93,7.93,0,0,1,2.12-3.89l3.07-3.3a18.45,18.45,0,0,0,2.47-4.53,39.27,39.27,0,0,0,1.89-6.21A65.14,65.14,0,0,0,189.9,307c.28-2.71.43-4.91.43-6.6v-2.28C189.62,298.13,188.8,298.17,187.74,298.21Zm61.06,14.94.78-1.3a59.82,59.82,0,0,1-11.08-5.94c-.47-.27-.91-.59-1.38-.86-1.22-.75-2.44-1.62-3.66-2.52-.59-.43-.94-.71-.94-.71-2.28-1.81-4.56-3.81-6.76-5.93v2.24h-10.7c-.47,1.81-.82,3.3-1,4.44a53.25,53.25,0,0,0-.63,5.7,71.55,71.55,0,0,0-.23,8.22c0,2.12.15,4.17.35,6.21s.43,3.74.71,5.15a4.23,4.23,0,0,0,1.06,2.6,2.37,2.37,0,0,0,1.34.43,5.31,5.31,0,0,0,2-.47c1-.36,1.57-.63,2-.83a1.43,1.43,0,0,1,.94-.23,1.21,1.21,0,0,1,.71.51c.12.27-.28.7-1.3,1.33a13.2,13.2,0,0,1-1.53.83c-.59.27-1.54.75-2.83,1.41s-2.28,1.18-2.95,1.54a15.09,15.09,0,0,1-1.85.86,1.27,1.27,0,0,1-1.38-.08c-.19-.07-.43-.43-.7-1a12,12,0,0,1-.67-3.3c-.2-1.61-.32-2.95-.4-4.09s-.07-3.34-.11-6.57,0-5.54.11-7a65.82,65.82,0,0,1,1.11-7.7,35.56,35.56,0,0,1,1.53-5.74l.82-2.24h-19c0,.94,0,2.12,0,3.61s-.08,3.86-.2,7.08-.43,6.53-.87,9.75a58.42,58.42,0,0,1-1.73,8.46,30.58,30.58,0,0,1-2.28,6,6.57,6.57,0,0,1-1.29,1.89,58.67,58.67,0,0,0,15.61,2,63,63,0,0,0,26.18-6.33,51.9,51.9,0,0,0,16.16-12l0-.08a7.77,7.77,0,0,1,.63-.66l.08-.08c.23-.28.51-.55.74-.87a7.6,7.6,0,0,0,.56-.59l0,0c-6.88-5.38-16.67-9.24-19.7-15.76,6.72,4.24,11.44,8.1,19.58,11.79A10.52,10.52,0,0,0,248.8,313.15Z"/><path class="cls-1" d="M94.4,356.25s1.51,13.27,20.32,7,0,.6,0,.6L152.2,340l-46.33,16.24Z"/><polygon class="cls-1" points="285.18 360.33 299.87 364.24 295.9 358.28 280.17 349.47 276.37 351.72 285.18 360.33"/><path class="cls-1" d="M153.67,312.3l6.26,7.88,18.67-4.47-1.21-13-1.32-.66s-3,.14-3,.72S153.67,312.3,153.67,312.3Z"/><path class="cls-1" d="M249.32,312.18l-.81,1.34c-.57.9-1.38,2.13-2.23,3.23a7.4,7.4,0,0,1-.52.65c-.25.33-.53.61-.77.9l-.08.08a6.48,6.48,0,0,0-.65.7l0,.08c-.69.61.44-.86.44-.86l-22.8-9.51,2.47-9.11,7.41,2.09,1,.73c1.25.94,2.51,1.84,3.76,2.61.49.29.93.62,1.42.9A61.07,61.07,0,0,0,249.32,312.18Z"/><path class="cls-1" d="M109.89,361.78s154.27-.06,184.2,2.46l-8.8-7.65L244,340l-28.67,15.32H186.72L156.21,340s-17.87,12.11-18,12.12S109.89,361.78,109.89,361.78Z"/></svg>